<svg version="1.1" id="New_logo" xmlns="http://www.w3.org/2000/svg" xmlns:xlink="http://www.w3.org/1999/xlink" x="0px" y="0px"
	 width="158.218px" height="160.229px" viewBox="0 0 158.218 160.229" enable-background="new 0 0 158.218 160.229"
	 xml:space="preserve">
<g>
  <g>
    <path fill="#ffffff" d="M62.908,0c13.342,22.39,20.58,42.49,22.215,47.271c-0.008-0.122-0.014-0.195-0.014-0.195
      C81.848,12.557,62.908,0,62.908,0z M85.123,47.271c0.301,4.32,5.205,83.175-36.518,98.988c0,0,3.838,0.715,8.166,0.512
      c0,0,53.049-33.459,28.713-98.422C85.484,48.349,85.363,47.972,85.123,47.271z M129.516,3.64
      c-6.775,14.395-19.318,17.068-19.318,17.068c-12.545,3.186-16.936,8.025-16.936,8.025C80.719,41.343,90.6,56.636,90.6,56.636
      c27.082-6.162,36.982-28.418,36.982-28.418c-1.203,14.951-33.441,32.615-33.441,32.615c10.662,10.443,20.855,9.184,27.584,5.18
      c8.92-5.309,13.197-16.936,13.197-16.936C143.564,23.257,129.516,3.64,129.516,3.64z"/>
  </g>
	<path fill="#ffffff" d="M98.818,103.036c0,7.949-1.898,15.359-5.691,22.23c-3.797,6.871-8.922,12.178-15.381,15.916s-13.549,5.607-21.271,5.607
		s-14.813-1.869-21.271-5.607s-11.584-9.045-15.379-15.916s-5.693-14.281-5.693-22.23c0-12.328,4.162-22.838,12.484-31.527
		c8.32-8.69,18.275-13.035,29.859-13.035c5.512,0,10.654,1.006,15.441,2.994c0.479-5.035,2.246-9.721,4.203-13.547
		c-6.023-2.186-12.551-3.291-19.594-3.291c-16.748,0-30.605,6.164-41.57,18.492C4.984,74.305,0,87.509,0,102.733
		c0,15.359,5.268,28.783,15.801,40.268c10.533,11.486,24.107,17.229,40.725,17.229c16.547,0,30.09-5.742,40.623-17.229
		c10.533-11.484,15.801-24.908,15.801-40.268c0-8.22-1.453-15.84-4.334-22.872c-4.836,2.975-9.432,4.531-13.238,5.325
		C97.664,90.64,98.818,96.587,98.818,103.036z"/>
</g>
</svg>
