<svg xmlns="http://www.w3.org/2000/svg" viewBox="0 0 392.6 172.6"><title>Inspire_Logotype</title><path d="M8.69 122.21a70.69 70.69 0 0 0 95.88 28.51z" fill="#00649c"/><path fill="#00649c" d="M104.53 150.73l-60.29-39.5-35.59 10.99"/><path d="M155.61 48.06a71.07 71.07 0 0 1-26.57 81.34 71 71 0 0 1-44.72 28.53l-.46.08c-1.16.21-2.34.39-3.52.55l-.87.11c-1.09.13-2.2.23-3.31.31l-.92.07c-1.37.08-2.74.24-4.12.24h-.76c-1.09 0-2.19 0-3.27-.1 0 0 .13-.07.1-.07 12.5 8.46 26.12 13.73 42 13.5 39.39-.57 71.34-31.22 71.34-70.49a70.92 70.92 0 0 0-24.94-54" fill="#5e6ab0"/><path d="M113.56 31.13a70.79 70.79 0 0 1 42 16.92A71.09 71.09 0 0 0 30.43 29.87a71.1 71.1 0 0 1 83.13 1.26" fill="#71c9e8"/><path d="M142.08 88.33c0 15.37-4.93 28.52-13 41.07a69.53 69.53 0 0 0 30.8-58.17 65.34 65.34 0 0 0-4.26-23.18 70.77 70.77 0 0 0-42-16.92 71.15 71.15 0 0 1 28.46 57.2" fill="#3c4395"/><path d="M42.06 125.06A71.09 71.09 0 0 1 109.36 31h.08c1.39 0 2.76 0 4.12.13a71.09 71.09 0 0 0-83.13-1.26A71.15 71.15 0 0 0 16.8 71.11c0 21.59 10.08 40.91 25.27 54" fill="#005686"/><path d="M113.58 31.11c-1.36-.08-2.8-.2-4.18-.2a71.3 71.3 0 0 0-71.37 71.19 72.43 72.43 0 0 0 4.06 23.26 70.88 70.88 0 0 0 24.92 33.8h.08c1.09.06 2.18.09 3.28.1h.74q2.08 0 4.13-.13l.92-.07c1.11-.08 2.21-.18 3.31-.31l.87-.11c1.18-.15 2.36-.33 3.52-.55l.46-.08a71.14 71.14 0 0 0 44.55-28.48l.09-.12a71.18 71.18 0 0 0-15.39-98.29" fill="#252b60"/><path d="M42.1 125.16v-.1a71 71 0 0 1-11.67-95.19A71 71 0 0 0 0 88.18c0 31 19 56.05 46.74 66v-18.34a73.18 73.18 0 0 1-4.65-10.68" fill="#00649c"/><path d="M86.11 57.44h13.92v88.55H86.11V57.44zm36.68 24.41h-.25v64.13h-12.53V57.44h17.46l14 53h.25v-53h12.4v88.55h-14.26z" fill="#fff"/><path d="M204.63 56.43c13.54 0 20.49 8.1 20.49 22.26v2.78h-13.15V77.8c0-6.32-2.53-8.73-7-8.73s-7 2.4-7 8.73 2.78 11.26 11.89 19.23c11.64 10.25 15.31 17.58 15.31 27.7 0 14.17-7.08 22.26-20.75 22.26s-20.75-8.1-20.75-22.26v-5.44h13.16v6.32c0 6.32 2.78 8.6 7.21 8.6s7.21-2.28 7.21-8.6-2.78-11.26-11.89-19.23c-11.64-10.25-15.31-17.58-15.31-27.7.09-14.15 7.05-22.25 20.58-22.25zm69.19 22.89v11.51c0 14.17-6.83 21.88-20.75 21.88h-6.58v33.27h-13.9V57.44h20.49c13.91 0 20.74 7.71 20.74 21.88zm-27.32-9.23v30h6.58c4.43 0 6.83-2 6.83-8.35v-13.3c0-6.33-2.4-8.35-6.83-8.35h-6.58zm33.77-12.65h13.92v88.55h-13.92V57.44zm53.13 88.54c-.76-2.28-1.26-3.67-1.26-10.88v-13.91c0-8.22-2.78-11.26-9.11-11.26h-4.81v36.05h-13.91V57.44h21c14.42 0 20.62 6.7 20.62 20.37v7c0 9.11-2.91 14.93-9.11 17.84v.25c7 2.91 9.23 9.49 9.23 18.72v13.61c0 4.3.13 7.46 1.52 10.75H333.4zm-15.18-75.9v27.2h5.47c5.19 0 8.35-2.28 8.35-9.36v-8.73c0-6.32-2.15-9.11-7.08-9.11h-6.7zm50.35 24.67h19.12v12.65h-19.1v25.93h24v12.65h-37.9V57.44h37.95v12.65h-24v24.66z" fill="#615a5f"/></svg>