<?xml version="1.0" standalone="no"?>
<!DOCTYPE svg PUBLIC "-//W3C//DTD SVG 20010904//EN"
 "http://www.w3.org/TR/2001/REC-SVG-20010904/DTD/svg10.dtd">
<svg version="1.0" xmlns="http://www.w3.org/2000/svg"
 width="400.000000pt" height="400.000000pt" viewBox="0 0 400.000000 400.000000"
 preserveAspectRatio="xMidYMid meet">
<metadata>
Created by potrace 1.11, written by Peter Selinger 2001-2013
</metadata>
<g transform="translate(0.000000,400.000000) scale(0.100000,-0.100000)"
fill="#000000" stroke="none">
<path d="M1908 3885 c-2 -2 -41 -5 -89 -8 -268 -18 -563 -132 -799 -308 -82
-62 -231 -209 -290 -287 -25 -32 -67 -74 -94 -93 -79 -54 -245 -226 -316 -327
-82 -116 -159 -263 -208 -397 -21 -56 -61 -222 -67 -281 -4 -32 -9 -68 -11
-79 -5 -24 -5 -270 0 -305 2 -14 7 -48 10 -75 4 -28 12 -70 17 -95 6 -25 13
-55 15 -68 10 -52 58 -182 99 -269 200 -425 585 -740 1036 -847 101 -24 140
-31 242 -41 35 -3 70 -18 135 -58 170 -105 378 -187 532 -212 19 -3 60 -10 90
-15 58 -10 356 -6 425 5 35 6 213 47 255 60 58 16 182 70 265 113 138 73 243
151 366 272 155 152 251 292 332 482 48 112 65 164 90 283 45 212 42 474 -9
680 -70 285 -215 539 -426 747 -51 50 -83 91 -93 117 -77 218 -254 469 -449
636 -225 193 -541 329 -836 360 -67 8 -218 14 -222 10z"/>
</g>
</svg>
