<svg xmlns="http://www.w3.org/2000/svg" viewBox="0 0 392.6 172.6"><title>Inspire_Logotype</title><path d="M10,123.68a70.69,70.69,0,0,0,95.88,28.51Z" transform="translate(-1.31 -1.47)" style="fill:#00649c"/><polyline points="104.53 150.73 44.24 111.23 8.65 122.22" style="fill:#00649c"/><path d="M156.92,49.53a71.07,71.07,0,0,1-26.57,81.34A71,71,0,0,1,85.63,159.4l-0.46.08c-1.16.21-2.34,0.39-3.52,0.55l-0.87.11c-1.09.13-2.2,0.23-3.31,0.31l-0.92.07c-1.37.08-2.74,0.24-4.12,0.24H72.34l-0.67,0c-1.09,0-2.19,0-3.27-.1,0,0,.13-0.07.1-0.07,12.5,8.46,26.12,13.73,42,13.5,39.39-.57,71.34-31.22,71.34-70.49a70.92,70.92,0,0,0-24.94-54" transform="translate(-1.31 -1.47)" style="fill:#5e6ab0"/><path d="M114.87,32.6a70.79,70.79,0,0,1,42,16.92A71.09,71.09,0,0,0,31.74,31.34a71.1,71.1,0,0,1,83.13,1.26" transform="translate(-1.31 -1.47)" style="fill:#71c9e8"/><path d="M143.39,89.8c0,15.37-4.93,28.52-13,41.07A69.53,69.53,0,0,0,161.19,72.7a65.34,65.34,0,0,0-4.26-23.18,70.77,70.77,0,0,0-42-16.92A71.15,71.15,0,0,1,143.39,89.8" transform="translate(-1.31 -1.47)" style="fill:#3c4395"/><path d="M43.37,126.53a71.09,71.09,0,0,1,67.3-94.06h0.08c1.39,0,2.76,0,4.12.13a71.09,71.09,0,0,0-83.13-1.26A71.15,71.15,0,0,0,18.11,72.58c0,21.59,10.08,40.91,25.27,54" transform="translate(-1.31 -1.47)" style="fill:#005686"/><path d="M114.89,32.58c-1.36-.08-2.8-0.2-4.18-0.2a71.3,71.3,0,0,0-71.37,71.19,72.43,72.43,0,0,0,4.06,23.26,70.88,70.88,0,0,0,24.92,33.8H68.4c1.09,0.06,2.18.09,3.28,0.1l0.74,0q2.08,0,4.13-.13l0.92-.07c1.11-.08,2.21-0.18,3.31-0.31l0.87-.11c1.18-.15,2.36-0.33,3.52-0.55l0.46-.08A71.14,71.14,0,0,0,130.18,131l0.09-.12a71.18,71.18,0,0,0-15.39-98.29" transform="translate(-1.31 -1.47)" style="fill:#252b60"/><path d="M43.41,126.63l0-.1A71,71,0,0,1,31.74,31.34,71,71,0,0,0,1.31,89.65c0,31,19,56.05,46.74,66V137.31a73.18,73.18,0,0,1-4.65-10.68" transform="translate(-1.31 -1.47)" style="fill:#00649c"/><path d="M87.42,58.91h13.92v88.55H87.42V58.91Z" transform="translate(-1.31 -1.47)" style="fill:#fff"/><path d="M124.1,83.32h-0.25v64.13H111.32V58.91h17.46l14,53h0.25v-53h12.4v88.55H141.17Z" transform="translate(-1.31 -1.47)" style="fill:#fff"/><path d="M205.94,57.9c13.54,0,20.49,8.1,20.49,22.26v2.78H213.28V79.27c0-6.32-2.53-8.73-7-8.73s-7,2.4-7,8.73,2.78,11.26,11.89,19.23c11.64,10.25,15.31,17.58,15.31,27.7,0,14.17-7.08,22.26-20.75,22.26s-20.75-8.1-20.75-22.26v-5.44h13.16v6.32c0,6.32,2.78,8.6,7.21,8.6s7.21-2.28,7.21-8.6-2.78-11.26-11.89-19.23c-11.64-10.25-15.31-17.58-15.31-27.7C185.45,66,192.41,57.9,205.94,57.9Z" transform="translate(-1.31 -1.47)" style="fill:#615a5f"/><path d="M275.13,80.79V92.3c0,14.17-6.83,21.88-20.75,21.88h-6.58v33.27H233.9V58.91h20.49C268.3,58.91,275.13,66.62,275.13,80.79Zm-27.32-9.23v30h6.58c4.43,0,6.83-2,6.83-8.35V79.91c0-6.33-2.4-8.35-6.83-8.35h-6.58Z" transform="translate(-1.31 -1.47)" style="fill:#615a5f"/><path d="M281.58,58.91H295.5v88.55H281.58V58.91Z" transform="translate(-1.31 -1.47)" style="fill:#615a5f"/><path d="M334.71,147.45c-0.76-2.28-1.26-3.67-1.26-10.88V122.66c0-8.22-2.78-11.26-9.11-11.26h-4.81v36.05H305.62V58.91h21c14.42,0,20.62,6.7,20.62,20.37v7c0,9.11-2.91,14.93-9.11,17.84v0.25c7,2.91,9.23,9.49,9.23,18.72V136.7c0,4.3.13,7.46,1.52,10.75H334.71Zm-15.18-75.9v27.2H325c5.19,0,8.35-2.28,8.35-9.36V80.66c0-6.32-2.15-9.11-7.08-9.11h-6.7Z" transform="translate(-1.31 -1.47)" style="fill:#615a5f"/><path d="M369.88,96.22H389v12.65h-19.1V134.8h24v12.65H356V58.91h37.95V71.56h-24V96.22Z" transform="translate(-1.31 -1.47)" style="fill:#615a5f"/></svg>